<mxfile host="app.diagrams.net" modified="2023-03-15T22:29:55.051Z" agent="5.0 (Windows NT 10.0; Win64; x64) AppleWebKit/537.36 (KHTML, like Gecko) Chrome/111.0.0.0 Safari/537.36 Edg/111.0.1661.41" etag="AJ6M41li5P86IAzzOmR6" version="21.0.2" type="github">
  <diagram id="C5RBs43oDa-KdzZeNtuy" name="Page-1">
    <mxGraphModel dx="1377" dy="802" grid="1" gridSize="10" guides="1" tooltips="1" connect="1" arrows="1" fold="1" page="1" pageScale="1" pageWidth="827" pageHeight="1169" math="0" shadow="0">
      <root>
        <mxCell id="WIyWlLk6GJQsqaUBKTNV-0" />
        <mxCell id="WIyWlLk6GJQsqaUBKTNV-1" parent="WIyWlLk6GJQsqaUBKTNV-0" />
        <mxCell id="F1LA552zFVjthzOrUmyp-7" value="Query User Data" style="html=1;dashed=0;whiteSpace=wrap;shape=mxgraph.dfd.start" vertex="1" parent="WIyWlLk6GJQsqaUBKTNV-1">
          <mxGeometry x="20" y="460" width="80" height="30" as="geometry" />
        </mxCell>
        <mxCell id="F1LA552zFVjthzOrUmyp-8" value="Potentially Add In-App Activity" style="html=1;dashed=0;whiteSpace=wrap;" vertex="1" parent="WIyWlLk6GJQsqaUBKTNV-1">
          <mxGeometry x="140" y="180" width="100" height="50" as="geometry" />
        </mxCell>
        <mxCell id="F1LA552zFVjthzOrUmyp-9" value="User Subscription Data" style="html=1;dashed=0;whiteSpace=wrap;" vertex="1" parent="WIyWlLk6GJQsqaUBKTNV-1">
          <mxGeometry x="130" y="440" width="110" height="50" as="geometry" />
        </mxCell>
        <mxCell id="F1LA552zFVjthzOrUmyp-10" value="User Deposit Data" style="html=1;dashed=0;whiteSpace=wrap;" vertex="1" parent="WIyWlLk6GJQsqaUBKTNV-1">
          <mxGeometry x="130" y="360" width="100" height="50" as="geometry" />
        </mxCell>
        <mxCell id="F1LA552zFVjthzOrUmyp-11" value="Basic user Characteristics" style="html=1;dashed=0;whiteSpace=wrap;" vertex="1" parent="WIyWlLk6GJQsqaUBKTNV-1">
          <mxGeometry x="140" y="250" width="100" height="50" as="geometry" />
        </mxCell>
        <mxCell id="F1LA552zFVjthzOrUmyp-14" value="User Transaction Data (" style="html=1;dashed=0;whiteSpace=wrap;" vertex="1" parent="WIyWlLk6GJQsqaUBKTNV-1">
          <mxGeometry x="130" y="510" width="110" height="50" as="geometry" />
        </mxCell>
        <mxCell id="F1LA552zFVjthzOrUmyp-15" value="" style="swimlane;startSize=0;" vertex="1" parent="WIyWlLk6GJQsqaUBKTNV-1">
          <mxGeometry x="110" y="350" width="160" height="220" as="geometry" />
        </mxCell>
        <mxCell id="F1LA552zFVjthzOrUmyp-18" value="" style="swimlane;startSize=0;" vertex="1" parent="WIyWlLk6GJQsqaUBKTNV-1">
          <mxGeometry x="110" y="160" width="160" height="160" as="geometry" />
        </mxCell>
        <mxCell id="F1LA552zFVjthzOrUmyp-19" value="&lt;b&gt;Additional Features for Model&lt;/b&gt;" style="text;html=1;align=center;verticalAlign=middle;resizable=0;points=[];autosize=1;strokeColor=none;fillColor=none;" vertex="1" parent="WIyWlLk6GJQsqaUBKTNV-1">
          <mxGeometry x="93.75" y="140" width="190" height="30" as="geometry" />
        </mxCell>
        <mxCell id="F1LA552zFVjthzOrUmyp-20" value="" style="swimlane;startSize=0;" vertex="1" parent="WIyWlLk6GJQsqaUBKTNV-1">
          <mxGeometry x="110" y="630" width="160" height="280" as="geometry" />
        </mxCell>
        <mxCell id="F1LA552zFVjthzOrUmyp-22" value="Customer Support Usage" style="html=1;dashed=0;whiteSpace=wrap;" vertex="1" parent="F1LA552zFVjthzOrUmyp-20">
          <mxGeometry x="25" y="10" width="110" height="50" as="geometry" />
        </mxCell>
        <mxCell id="F1LA552zFVjthzOrUmyp-23" value="Transaction Data for PSP Costs" style="html=1;dashed=0;whiteSpace=wrap;" vertex="1" parent="F1LA552zFVjthzOrUmyp-20">
          <mxGeometry x="25" y="80" width="110" height="50" as="geometry" />
        </mxCell>
        <mxCell id="F1LA552zFVjthzOrUmyp-24" value="Fraud + KYC Costs" style="html=1;dashed=0;whiteSpace=wrap;" vertex="1" parent="F1LA552zFVjthzOrUmyp-20">
          <mxGeometry x="25" y="140" width="110" height="50" as="geometry" />
        </mxCell>
        <mxCell id="F1LA552zFVjthzOrUmyp-25" value="Interest Payouts" style="html=1;dashed=0;whiteSpace=wrap;" vertex="1" parent="F1LA552zFVjthzOrUmyp-20">
          <mxGeometry x="25" y="210" width="110" height="50" as="geometry" />
        </mxCell>
        <mxCell id="F1LA552zFVjthzOrUmyp-21" value="&lt;b&gt;Cost Generating Data&lt;/b&gt;" style="text;html=1;align=center;verticalAlign=middle;resizable=0;points=[];autosize=1;strokeColor=none;fillColor=none;" vertex="1" parent="WIyWlLk6GJQsqaUBKTNV-1">
          <mxGeometry x="120" y="610" width="150" height="30" as="geometry" />
        </mxCell>
        <mxCell id="F1LA552zFVjthzOrUmyp-16" value="&lt;b&gt;Revenue Generating Data&lt;/b&gt;" style="text;html=1;align=center;verticalAlign=middle;resizable=0;points=[];autosize=1;strokeColor=none;fillColor=none;" vertex="1" parent="WIyWlLk6GJQsqaUBKTNV-1">
          <mxGeometry x="105" y="330" width="170" height="30" as="geometry" />
        </mxCell>
      </root>
    </mxGraphModel>
  </diagram>
</mxfile>
